<svg width="46" height="182" viewBox="0 0 46 182" xmlns="http://www.w3.org/2000/svg">
    <svg width="26" height="15" viewBox="0 0 26 15" id="card-maestro">
        <title>Maestro</title>
        <g fill="none" fill-rule="evenodd">
            <path fill="#F14947"
                  d="M18.116.003l-.397.01-.395.028-.387.05-.38.065-.375.083-.368.102-.358.12-.352.133-.342.15-.332.166-.323.178-.313.195-.303.21-.292.223-.28.235-.268.25-.256.26-.243.273-.23.28-.213.294-.202.306-.185.31-.172.325-.154.33-.14.34-.12.35-.104.353-.086.363-.068.367-.05.374-.028.38-.01.384.01.387.03.382.048.374.068.373.086.362.105.356.12.35.14.342.153.334.172.323.185.313.202.306.214.293.23.283.244.273.256.26.27.25.278.235.293.223.304.21.313.194.324.182.333.165.342.15.352.135.358.12.368.1.374.083.38.066.388.048.394.028.396.01.4-.01.394-.028.387-.048.384-.066.374-.083.37-.1.36-.12.352-.134.344-.15.335-.166.324-.182.315-.194.303-.21.292-.223.282-.235.27-.25.258-.26.243-.274.23-.283.216-.294.2-.307.19-.314.168-.324.157-.334.14-.342.12-.35.106-.355.087-.362.068-.372.05-.373.028-.382.01-.387-.01-.385-.03-.38-.048-.373-.068-.367-.086-.362-.104-.353-.122-.35-.14-.338-.156-.332-.17-.324-.187-.31-.2-.307-.217-.294-.23-.28-.243-.274-.26-.26-.268-.25-.282-.234-.292-.223-.303-.21-.316-.195-.325-.18-.335-.164-.344-.15-.353-.135-.36-.12-.37-.102-.372-.083-.383-.066-.387-.05-.394-.027"/>
            <path fill="#009DDD"
                  d="M7.757.003l-.4.01-.394.028-.386.05-.384.065-.374.083-.37.102-.36.12-.352.133-.345.15L4.06.91l-.325.178-.316.195-.304.21-.293.223-.282.235-.268.25-.258.26-.243.273-.23.28-.216.294-.2.306-.19.31-.17.325-.155.33-.14.34-.123.35-.104.353-.086.363-.068.367-.05.374-.03.38-.01.384.01.387.03.382.05.374.067.373.086.362.104.356.123.35.14.342.155.334.17.323.188.313.2.306.218.293.23.283.244.273.258.26.27.25.28.235.294.223.303.21.315.194.324.182.333.165.345.15.353.135.36.12.37.1.373.083.384.066.386.048.395.028.4.01.396-.01.395-.028.385-.048.382-.066.373-.083.368-.1.358-.12.353-.134.34-.15.333-.166.324-.182.313-.194.303-.21.293-.223.28-.235.268-.25.256-.26.243-.274.23-.283.214-.294.2-.307.187-.314.172-.324.154-.334.14-.342.12-.35.103-.355.086-.362.067-.372.05-.373.03-.382.01-.387-.01-.385-.03-.38-.05-.373-.068-.367-.087-.362-.104-.353-.12-.35-.14-.338-.154-.332-.172-.324-.186-.31-.2-.307-.215-.294-.23-.28-.243-.274-.256-.26-.27-.25-.278-.234-.293-.223-.303-.21-.313-.195-.324-.18-.332-.164-.34-.15-.354-.135-.358-.12-.363-.1-.373-.083L8.935.09 8.55.04 8.153.014"/>
            <path fill="#F14947"
                  d="M11.762 3.23l-.055.077-.202.306-.185.31-.172.325-.084.18h4.967V3.23m-5.398 2.38l-.003.01-.086.363-.068.366-.05.374-.005.083h5.61V5.61m-5.624 2.382l.02.265.05.374.067.373.044.185h5.443V7.992m-5.053 2.381l.016.04.154.333.172.323.185.313.123.186h4.403v-1.197"/>
        </g>
    </svg>
    <svg width="26" height="16" viewBox="0 0 26 16" id="card-mastercard" y="17">
        <title>MasterCard</title>
        <g fill="none" fill-rule="evenodd">
            <ellipse fill="#EA001B" cx="7.879" cy="8" rx="7.879" ry="8"/>
            <ellipse fill="#F79F1A" cx="17.366" cy="8" rx="7.879" ry="8"/>
            <path d="M12.476 14.348a8.034 8.034 0 0 0 3.12-6.38 8.033 8.033 0 0 0-3.12-6.38 8.033 8.033 0 0 0-3.12 6.38 8.034 8.034 0 0 0 3.12 6.38z"
                  fill="#FF5F01"/>
        </g>
    </svg>
    <svg width="32" height="9" viewBox="0 0 32 9" id="card-mir" y="35">
        <title>Mir</title>
        <defs>
            <linearGradient x1="-.18%" y1="50%" y2="50%" id="a">
                <stop stop-color="#00B4E6" offset="0%"/>
                <stop stop-color="#088CCB" offset="100%"/>
            </linearGradient>
        </defs>
        <g fill="none" fill-rule="evenodd">
            <path d="M28.408 0h-6.073c.326 1.993 2.285 3.857 4.44 3.857h4.833c.065-.193.065-.45.065-.643 0-1.8-1.436-3.214-3.265-3.214z"
                  fill="url(#a)"/>
            <path d="M22.857 4.18V9h2.94V6.43h2.61c1.438 0 2.68-.966 3.07-2.25h-8.62zM12.408 0v9h2.612s.653 0 .98-.643l2.286-4.5h.326V9h2.94V0h-2.613s-.654.064-.98.643l-2.287 4.5h-.326V0h-2.94zM0 9V0h2.94s.848 0 1.305 1.286C5.42 4.693 5.55 5.143 5.55 5.143s.262-.836 1.307-3.857C7.314 0 8.163 0 8.163 0h2.94v9h-2.94V4.18h-.326L6.204 9H4.898L3.265 4.18H2.94V9H0z"
                  fill="#4DB45F"/>
        </g>
    </svg>
    <svg width="29" height="10" viewBox="0 0 26 9" id="card-visa" y="46">
        <title>Visa</title>
        <g fill="none" fill-rule="evenodd">
            <path fill="#3371B7"
                  d="M10.326.22L9.02 8.654h2.09L12.417.22M7.26.22l-1.994 5.8-.236-1.248L4.326.98S4.24.22 3.334.22H.04L0 .36s1.008.22 2.188.964l1.816 7.33h2.18L9.51.218H7.26zm14.147 5.45l1.1-3.156.617 3.157h-1.717zm2.3 2.985h1.92L23.955.22h-1.68c-.777 0-.966.628-.966.628l-3.12 7.807h2.18l.437-1.253h2.658l.245 1.253zm-5.355-6.407l.3-1.812S17.73.068 16.77.068c-1.038 0-3.502.477-3.502 2.793 0 2.18 2.892 2.207 2.892 3.352 0 1.144-2.594.94-3.45.218l-.31 1.893s.932.477 2.36.477c1.426 0 3.58-.776 3.58-2.888 0-2.193-2.92-2.397-2.92-3.35 0-.955 2.037-.832 2.932-.314"/>
            <path d="M5.03 4.772L4.326.98S4.24.22 3.334.22H.04L0 .36S1.584.707 3.104 2C4.556 3.232 5.03 4.77 5.03 4.77"
                  fill="#FC9F46"/>
        </g>
    </svg>
    <svg width="30" height="20" viewBox="0 0 30 20" id="cvc-info" y="58">
        <title>CVC info</title>
        <g fill="none" fill-rule="evenodd">
            <rect fill="#F0F0F0" width="30" height="20" rx="2"/>
            <path fill="#333" d="M0 3v5h30V3"/>
            <text font-family="ArialMT, Arial" font-size="3.2" fill="#333">
                <tspan x="2.579" y="14">123456789</tspan>
            </text>
            <text font-family="ArialMT, Arial" font-size="3.2" fill="#333">
                <tspan x="21.316" y="14">123</tspan>
            </text>
            <path d="M28.06 10.473s-6.317-2.5-7.02 1.774c-.704 4.273 8.285 5.395 7.754-3.247" stroke="#FF6163"
                  stroke-width="1.6"/>
        </g>
    </svg>
    <svg width="16" height="16" viewBox="0 0 16 16" id="info" y="80">
        <title>Info</title>
        <g fill="#0AF" fill-rule="evenodd">
            <path d="M8 1.6c3.535 0 6.4 2.865 6.4 6.4s-2.865 6.4-6.4 6.4S1.6 11.535 1.6 8 4.465 1.6 8 1.6zM8 16c4.42 0 8-3.58 8-8s-3.58-8-8-8-8 3.58-8 8 3.58 8 8 8z"/>
            <path d="M5.998 4.636c.127-.112.266-.218.417-.32a3.038 3.038 0 0 1 1.727-.503c.325 0 .62.045.888.134a2 2 0 0 1 .686.384c.19.167.338.368.442.603.105.235.157.498.157.79 0 .283-.04.53-.123.736a2.108 2.108 0 0 1-.308.54c-.123.152-.26.285-.406.397l-.417.316c-.13.1-.243.196-.338.29a.58.58 0 0 0-.17.323l-.13.818h-.946L7.38 8.23a.745.745 0 0 1 .076-.46c.073-.133.17-.255.292-.365.12-.11.256-.216.406-.32.15-.102.29-.214.42-.335.13-.12.24-.258.327-.41.09-.15.133-.33.133-.54a.82.82 0 0 0-.286-.635.953.953 0 0 0-.322-.176 1.266 1.266 0 0 0-.406-.063 1.815 1.815 0 0 0-.916.227c-.103.058-.19.11-.26.157a.36.36 0 0 1-.19.07c-.136 0-.233-.055-.292-.167l-.364-.577zm1.058 6.602a.844.844 0 0 1 .241-.6.858.858 0 0 1 .605-.245c.12 0 .23.022.333.067a.924.924 0 0 1 .27.18.815.815 0 0 1 .18.268.844.844 0 0 1-.181.93.87.87 0 0 1-.938.176.825.825 0 0 1-.27-.176.84.84 0 0 1-.24-.6z"/>
        </g>
    </svg>
    <svg width="10" height="13" viewBox="0 0 10 13" id="lock" y="98">
        <title>Lock</title>
        <g fill="#97CF26" transform="translate(-3 -2)" fill-rule="evenodd">
            <path d="M6.765 8.496c0 .684.557 1.243 1.235 1.243.68 0 1.235-.558 1.235-1.244V5.243C9.235 4.56 8.678 4 8 4a1.24 1.24 0 0 0-1.235 1.243v3.253zM8 2a3.243 3.243 0 0 1 3.235 3.243v3.253A3.242 3.242 0 0 1 8 11.739a3.244 3.244 0 0 1-3.235-3.244V5.243A3.242 3.242 0 0 1 8 2z"/>
            <rect x="3" y="7.478" width="10" height="7.522" rx="2"/>
        </g>
    </svg>
    <svg width="46" height="19" viewBox="0 0 46 19" y="113">
        <title>PCI DSS</title>
        <g fill-rule="nonzero" fill="none">
            <path fill="#0D6B71" d="M28.46 11.98L6.43 18.977 0 1.325 23.13.01"/>
            <path d="M9.054 8.476c0-.66-.485-.99-1.447-.99h-.35v2.03h.32c.48 0 .846-.084 1.1-.25.247-.17.377-.432.377-.79m2.747-.034c0 .45-.094.842-.297 1.183-.197.34-.473.626-.828.853-.355.228-.782.4-1.284.512-.5.114-1.05.17-1.665.17h-.45v2.277H4.42v-7.59h3.356c1.255 0 2.24.217 2.955.644.717.433 1.07 1.082 1.07 1.952M18.88 13.425c-.44.085-.942.125-1.5.125-.793 0-1.497-.09-2.122-.273-.62-.182-1.148-.443-1.576-.78-.434-.335-.76-.744-.986-1.228-.225-.484-.337-1.025-.337-1.616 0-.586.117-1.12.36-1.605.24-.484.58-.9 1.012-1.24.434-.342.952-.61 1.56-.797.602-.188 1.267-.28 1.988-.28.557 0 1.075.018 1.525.115.456.102.462.114.828.245l-.006 2.036c-.28-.16-.602-.297-.95-.405-.35-.108-.727-.16-1.133-.16-.647 0-1.17.183-1.576.54-.406.36-.608.872-.608 1.543 0 .347.062.648.19.904.13.262.3.478.513.65.214.17.468.3.755.386.287.09.597.13.935.13.343 0 .675-.034 1.007-.108.327-.073.676-.182 1.048-.318l.005 1.9c-.456.13-.495.148-.934.233M20.984 5.848h2.877v7.583h-2.876zM24.17 3.476c0 .512-.168.91-.5 1.2-.332.29-.75.438-1.244.438-.49 0-.907-.142-1.245-.438-.336-.29-.5-.694-.5-1.2 0-.524.17-.927.5-1.218.334-.29.75-.438 1.246-.438.49 0 .906.148 1.244.438.332.29.5.694.5 1.218"
                  fill="#FFF"/>
            <path d="M36.006 6.32c0 1.018-.276 1.798-.833 2.35-.558.55-1.335.824-2.337.824h-1.948V3.407h2.09c.967 0 1.716.25 2.24.75.523.502.788 1.22.788 2.163zm-1.695.057c0-.558-.106-.973-.325-1.24-.22-.268-.552-.404-.997-.404h-.473v3.413h.36c.496 0 .856-.148 1.087-.438.237-.29.35-.734.35-1.33zM41.028 7.646c0 .375-.095.71-.287 1.006-.19.296-.46.524-.82.683-.355.165-.778.245-1.256.245-.4 0-.738-.03-1.008-.086-.27-.057-.558-.153-.85-.295V7.73c.31.16.636.285.968.376.338.09.642.137.923.137.243 0 .417-.04.53-.125.112-.086.17-.194.17-.325 0-.085-.024-.153-.07-.216-.044-.062-.117-.125-.22-.187-.1-.063-.365-.194-.798-.393-.395-.182-.688-.358-.885-.523-.197-.17-.343-.364-.44-.586-.095-.222-.14-.478-.14-.78 0-.563.203-1 .608-1.314.406-.313.957-.472 1.667-.472.625 0 1.26.148 1.908.438l-.5 1.27c-.564-.263-1.054-.394-1.46-.394-.213 0-.365.04-.46.114-.096.074-.147.17-.147.28 0 .118.063.226.187.317.124.097.456.268.996.518.518.24.88.49 1.08.762.204.268.305.61.305 1.02zM45.9 7.646c0 .375-.097.71-.288 1.006-.192.296-.462.524-.823.683-.355.165-.778.245-1.256.245-.4 0-.738-.03-1.008-.086-.27-.057-.557-.153-.85-.295V7.73c.31.16.636.285.968.376.338.09.642.137.924.137.242 0 .416-.04.53-.125.112-.086.168-.194.168-.325 0-.085-.023-.153-.068-.216-.045-.062-.118-.125-.22-.187-.1-.063-.365-.194-.8-.393-.393-.182-.686-.358-.883-.523-.197-.17-.343-.364-.44-.586-.095-.222-.14-.478-.14-.78 0-.563.203-1 .608-1.314.406-.313.958-.472 1.667-.472.625 0 1.26.148 1.91.438l-.502 1.27c-.563-.263-1.053-.394-1.46-.394-.213 0-.365.04-.46.114-.096.074-.147.17-.147.28 0 .118.063.226.187.317.124.097.456.268.997.518.518.24.878.49 1.08.762.21.268.305.61.305 1.02zM31.744 10.837c-.146 0-.26.057-.338.165-.08.108-.118.267-.118.46 0 .41.152.615.456.615.13 0 .28-.034.467-.097v.33c-.15.063-.314.097-.5.097-.264 0-.467-.08-.608-.245-.14-.165-.208-.398-.208-.7 0-.193.034-.358.1-.506.07-.142.17-.256.3-.33.13-.08.28-.113.456-.113.18 0 .354.045.534.13l-.123.32c-.067-.035-.135-.064-.208-.086-.073-.03-.14-.04-.208-.04zM34.255 11.457c0 .307-.073.54-.225.705-.152.165-.366.245-.642.245-.282 0-.495-.08-.642-.245-.152-.165-.225-.398-.225-.705 0-.307.074-.54.226-.706.152-.158.366-.243.648-.243.28 0 .495.08.64.244.148.166.22.4.22.707zm-1.334 0c0 .205.04.364.12.466.078.103.19.16.348.16.31 0 .462-.205.462-.62 0-.416-.152-.626-.462-.626-.152 0-.27.05-.35.16-.078.096-.117.255-.117.46zM35.41 12.378l-.44-1.444h-.01c.016.295.02.49.02.59v.86h-.342V10.54h.53l.433 1.412h.006l.456-1.41h.53v1.842h-.36v-.876-.142c0-.05.005-.2.016-.427h-.01l-.474 1.444h-.355v-.006zM38.31 11.11c0 .2-.063.353-.187.455-.124.102-.298.16-.523.16h-.17v.653h-.382v-1.843h.585c.22 0 .39.046.507.143.107.096.17.244.17.432zm-.88.296h.13c.118 0 .208-.023.265-.074.056-.046.09-.12.09-.205 0-.09-.023-.16-.073-.205-.05-.045-.13-.068-.23-.068h-.176v.552h-.005zM38.652 12.378v-1.843h.39v1.525h.742v.324h-1.132M42.064 12.378l-.135-.438h-.665l-.135.438h-.417l.642-1.854h.473l.647 1.854h-.41zm-.225-.768c-.125-.398-.192-.625-.21-.676-.016-.052-.027-.09-.033-.126-.028.108-.107.376-.236.797h.48v.005zM44.328 12.378h-.49l-.794-1.393h-.01c.016.244.02.42.02.53v.87h-.342V10.54h.49l.794 1.383h.01c-.01-.24-.016-.41-.016-.506v-.876h.35v1.838h-.012zM45.493 12.378h-.388V10.86h-.496v-.325h1.38v.325h-.497"
                  fill="#0D6B71"/>
        </g>
    </svg>
    <svg width="28" height="20" viewBox="0 0 28 20" y="134">
        <title>Icon Card</title>
        <g transform="translate(0 1)" fill="none" fill-rule="evenodd">
            <rect stroke="#858585" stroke-width="2" x="1" width="26" height="18" rx="3"/>
            <path fill="#858585" fill-rule="nonzero" d="M0 3h28v3H0z"/>
            <rect fill="#858585" fill-rule="nonzero" x="3" y="9" width="17.143" height="1.905" rx=".952"/>
            <rect fill="#858585" fill-rule="nonzero" x="22" y="9" width="2.857" height="1.905" rx=".952"/>
        </g>
    </svg>
    <svg width="29" height="26" viewBox="0 0 29 26" y="156">
        <title>Icon Rub</title>
        <g fill="#858585" fill-rule="evenodd">
            <path d="M16 0c7.18 0 13 5.82 13 13s-5.82 13-13 13c-3.787 0-7.313-1.63-9.765-4.418-.237-.27-.21-.68.06-.918.268-.237.968-.934 1.205-.664 2.208 2.51 5.09 4 8.5 4 6.462 0 11-4.538 11-11S22.462 2 16 2 5 6.538 5 13c0 .36-.99.65-1.35.65-.36 0-.65-.29-.65-.65C3 5.82 8.82 0 16 0z"
                  fill-rule="nonzero"/>
            <path d="M13 11.95h1V6h3.207c.563 0 1.077.07 1.54.214.464.143.862.36 1.193.653.33.292.59.662.778 1.11.188.448.282.982.282 1.604 0 .623-.1 1.164-.298 1.624-.2.46-.47.842-.812 1.147-.342.305-.712.777-1.176.926-.463.15-.966.224-1.507.224h-1.174L16 15.14h2.168V17H16v2h-2v-2h-1v-1.86h1l.033-1.64h-1L13 11.95zm4.64.05c.735 0 .81-.16 1.23-.582.42-.422.63-1.06.63-1.918 0-.857-.21-.98-.63-1.367-.42-.39-.495-.633-1.23-.633H16V12h1.64zM4.12 13.473l2.888-2.887c.223-.222.595-.226.823.002.22.22.23.596.002.822l-3.3 3.3c-.11.112-.26.168-.408.17-.15 0-.3-.055-.412-.168l-.34-.34-2.958-2.958c-.233-.233-.23-.6-.002-.826.22-.22.596-.23.822-.002l2.887 2.887z"/>
        </g>
    </svg>
</svg>