<svg xmlns="http://www.w3.org/2000/svg" width="139" height="43" viewBox="0 0 139 43">
    <g fill="none" fill-rule="evenodd">
        <path fill="#FFFFFE" d="M19.485 6.379l-.02.004.017-.023.003.019zm27.747 13.753l.618-1.979-2.045.065c-.174 0-1.43-.036-2.648-.92.09.008.181.022.275.022 1.254 0 2.469-.755 2.955-1.836l.88-1.953c-1.104.015-2.113-.125-2.113-.125-.008 0-.804-.104-1.723-1.043-.66-.673-1.475-1.03-2.36-1.03-.386 0-.732.07-1.03.165.047-.158.09-.319.116-.484.281-1.827-.894-3.22-.894-3.219L37.724 5.89l-.954 2.238c-.003.007-.245.532-.674.788-.13-.658-.45-1.398-1.132-2.104C33.676 5.479 32.11 5.28 31.29 5.28c-.38 0-.651.041-.717.052l-1.857.365c.108-.414.336-1.138.753-1.788l1.024-1.596-2.578.293-.821-1.744-1.59.82L24.032.229l-1.466 1.453-1.594-.82-.82 1.744-2.578-.294 1.027 1.597c.417.65.645 1.372.75 1.785l-1.771-.349-.061-.01c-.089-.014-.358-.055-.74-.055-.82 0-2.385.199-3.67 1.53-.684.707-1.004 1.448-1.135 2.106-.428-.254-.667-.77-.667-.77l-.956-2.251L8.79 7.812c-.191.246-1.133 1.556-.877 3.204.026.164.07.324.116.482a3.352 3.352 0 0 0-1.03-.164c-.883 0-1.7.356-2.36 1.03-.917.935-1.707 1.04-1.7 1.04 0 0-.837.151-2.131.127l.875 1.953c.487 1.08 1.703 1.836 2.954 1.836.095 0 .185-.014.278-.022-1.216.884-2.473.92-2.624.921l-2.083-.066.631 1.978c.318 1.02 1.379 2.71 3.41 2.892-.22.926-.71 1.965-1.787 2.412l-1.552.638.847 1.474c.477.795 1.599 1.725 3.195 1.725.345 0 .68-.036 1-.104.082.362.185.727.306 1.087.475 1.416.065 2.403.062 2.414l-.767 1.605 1.71.45c.022.007.538.15 1.185.15a3.764 3.764 0 0 0 1.41-.276c.222.396.49.759.804 1.083 1.096 1.125 2.65 1.694 4.617 1.694h.006l1.404-.018-2.901 1.207 2.203 1.065c.8.39 1.749.85 2.716 1.203l-.276.753.76.346c.067.031 1.527.684 3.954.823 0 0 .586.027.909.027.323 0 .901-.028.901-.028 2.411-.144 3.86-.79 3.928-.822l.76-.346-.276-.754c.993-.364 1.977-.843 2.745-1.218l2.161-1.05-2.892-1.206 1.41.018c1.97 0 3.524-.57 4.618-1.696.312-.322.58-.683.803-1.082a3.646 3.646 0 0 0 1.411.276c.637 0 1.159-.14 1.173-.145l1.718-.454-.749-1.576c-.017-.04-.427-1.027.048-2.443.121-.362.223-.725.306-1.087.322.068.659.103 1.007.104a3.731 3.731 0 0 0 3.197-1.741l.838-1.458-1.552-.638c-1.078-.447-1.567-1.485-1.786-2.411 2.005-.174 3.08-1.865 3.41-2.892z"/>
        <path fill="#FFFFFE" d="M24.033 6.29c-1.643.002-2.876.54-3.144 1.174l3.144 1.24 3.144-1.24c-.266-.634-1.499-1.172-3.144-1.174M24.066 39.129h-.063c-.996.007-2.368-.198-3.028-.39l-.795 2.15c.524.187 2.3.544 3.856.544 1.553 0 3.329-.357 3.852-.544l-.794-2.15c-.662.192-2.033.397-3.028.39M30.08 36.99c-.59.333-1.912.837-2.68 1.07l.645 1.776c1.189-.324 2.17-.703 2.98-1.11l-1.34-.444.396-1.293M17.988 36.99l.396 1.292-1.34.444c.809.407 1.794.786 2.978 1.11l.646-1.776c-.766-.233-2.09-.737-2.68-1.07M24.033 4.234c1.24 0 2.453.296 3.388.817.085-.287.205-.634.367-.999l-.354.043-.37.038-.157-.337-.473-.998-.862.448-.335.171-.268-.264-.936-.926-.934.926-.268.264-.335-.17-.866-.449-.466.998-.16.337-.37-.038-.352-.043c.162.365.28.712.367.999.937-.521 2.15-.817 3.384-.817M42.946 15.769c.16.056.324.08.486.08.701 0 1.378-.454 1.61-.971 0 0-1.284-.078-2.666-1.481-.44-.454-.905-.59-1.304-.59-.62 0-1.087.327-1.087.327 1.67.889 2.01 2.314 2.96 2.635M4.636 15.849c.162 0 .326-.025.483-.08.953-.321 1.297-1.746 2.964-2.635 0 0-.467-.328-1.084-.328-.402 0-.867.137-1.308.592-1.38 1.402-2.665 1.48-2.665 1.48.231.517.91.97 1.61.97"/>
        <path fill="#FFFFFE" d="M42.442 26.004c-1.29-.637-2.107-2.327-2.303-2.935-.215 3.351-1.85 5.676-3.763 7.914-.992 1.161-1.338 2.29-1.338 2.29s.191-1.28 1.049-2.319c1.784-2.143 3.48-4.812 3.606-7.897.086-2.154-.467-3.9-1.331-5.34.483 1.5.414 3.335-1.226 5.048 0 0 3.267-3.915-1.301-7.929-1.828-1.527-3.83-2.47-4.858-3.139 3.72 1.214 5.538-.122 5.538-.122-1.188 1.03-2.727 1.012-3.681.863.26.127.528.258.818.414 3.136 1.704 5.956 4.508 6.437 8.39v-.03c.73 3.814 2.353 4.792 2.353 4.792m.955-4.443c.03.002.054.002.083.002 1.75 0 2.342-1.873 2.342-1.873h-.034c-.321 0-2.921-.075-4.76-2.411-1.209-1.536-2.2-2.887-4.158-3.418l-.193-.034-.042-.196c-.054-.299.152-.58.616-.882 2.703-1.77.867-4.027.867-4.027s-.771 1.805-2.497 1.805l-.129-.002c-.196-.01-.386-.018-.576-.058l-.318-.062s.492-1.34-.696-2.568c-.895-.928-1.983-1.086-2.612-1.086-.317 0-.518.041-.518.041.597.78 1.028 2.075.34 2.874-.596.687-2.051.72-2.051 1.743 0 .433.405.939 1.132 1.393 2.187 1.377 4.357 3.205 5.26 5.653 1.128 3.054-.143 5.081-1.956 6.244 0 0 .57.524 1.393.59.168.017.332.024.485.024 1.742 0 2.642-.816 2.642-.816s-.148 1.128-1.054 2.176c-.837.967-1.934 1.537-3.608 1.56 0 0-.053.777.688 1.45.475.424 1.57.562 1.57.562s-2.051.416-2.278 3.445c-.122 1.642-.542 2.212-.542 2.212h.037c4.76 0 4.638-4.082 4.638-4.082s.33 1.208 1.659 1.524c.16.042.331.058.494.058.427 0 .8-.1.8-.1s-.696-1.467-.007-3.518c.573-1.703.48-2.965.48-2.965s.641.97 2.231.979h.017c1.324 0 1.9-1.003 1.9-1.003-3.173-1.319-2.86-5.57-2.86-5.57s.413.308 1.215.336M11.69 30.983c-1.91-2.238-3.546-4.563-3.762-7.914-.198.608-1.011 2.298-2.3 2.935 0 0 1.621-.979 2.35-4.791v.03c.483-3.883 3.301-6.687 6.44-8.39.287-.157.558-.288.816-.414-.954.148-2.493.166-3.68-.864 0 0 1.817 1.336 5.537.122-1.03.669-3.03 1.612-4.857 3.139-4.57 4.014-1.301 7.93-1.301 7.93-1.644-1.714-1.71-3.549-1.226-5.048-.866 1.44-1.42 3.185-1.33 5.338.125 3.085 1.82 5.754 3.6 7.898.862 1.04 1.056 2.318 1.056 2.318s-.35-1.128-1.342-2.289m.765-.738s1.095-.138 1.57-.563c.741-.672.688-1.45.688-1.45-1.675-.022-2.77-.592-3.612-1.559-.9-1.048-1.05-2.176-1.05-2.176s.9.816 2.64.816c.155 0 .318-.007.486-.023.826-.067 1.396-.591 1.396-.591-1.815-1.163-3.086-3.19-1.96-6.244.903-2.448 3.073-4.276 5.26-5.653.727-.454 1.132-.96 1.132-1.393 0-1.024-1.453-1.056-2.049-1.743-.689-.8-.257-2.094.338-2.874 0 0-.198-.04-.517-.04-.627 0-1.716.157-2.61 1.085-1.192 1.229-.697 2.568-.697 2.568l-.318.062c-.19.04-.382.048-.577.058l-.126.002c-1.731 0-2.499-1.804-2.499-1.804s-1.834 2.257.867 4.026c.465.302.67.583.615.882l-.041.196-.197.034c-1.954.532-2.947 1.883-4.158 3.418-1.836 2.336-4.434 2.411-4.756 2.411h-.036s.593 1.873 2.342 1.873c.028 0 .054 0 .084-.002.804-.028 1.216-.336 1.216-.336s.31 4.251-2.86 5.569c0 0 .577 1.004 1.9 1.004h.016c1.591-.009 2.231-.979 2.231-.979s-.092 1.263.478 2.964c.69 2.053-.002 3.519-.002 3.519s.37.1.797.1c.166 0 .335-.016.494-.058 1.327-.316 1.659-1.524 1.659-1.524s-.122 4.082 4.639 4.082h.034s-.416-.57-.539-2.212c-.226-3.03-2.278-3.445-2.278-3.445M22.96 15.202h2.243v.77c-.264-.323-.778-.258-.778-.258v1.11s.02.546.211.782h-1.11c.194-.236.211-.782.211-.782v-1.11s-.512-.065-.778.257v-.77zm-2.446.115a4.837 4.837 0 0 1 .484.617 8.181 8.181 0 0 1 .275.439c.687 1.185 1.785 1.894 2.76 1.895.976-.001 2.073-.71 2.762-1.895.076-.132.153-.26.233-.379l.035-.052a4.692 4.692 0 0 1 .494-.628l.039-.038c.35-.358.766-.63 1.312-.782l-.243-.141h-.013l-.967-.561-.992-.569-2.653 1.444-.007-.006-.005.006-2.653-1.444-.992.569-.968.56h-.012l-.245.142c.547.151.962.421 1.313.78.016.014.026.03.043.043z"/>
        <path fill="#FFFFFE" d="M23.188 10.308v.724l-.14-.063c-.006-.005-.21-.052-.566-.333-.588-.456-.599-.877-.599-.877l1.305.55zm.615 3.4V9.2l-2.869-.972.757 4.367 2.112 1.113zM24.88 10.308l1.306-.549s-.012.421-.601.877c-.355.281-.56.328-.566.333l-.139.063v-.724zm1.496 2.287l.755-4.367-2.867.972v4.508l2.112-1.113zM19.746 24.157c.279.102.618.123.792.123.006-.021.016-.048.024-.08.015-.051.03-.102.04-.158.05-.25.067-.533.07-.715a1.004 1.004 0 0 1-.376-.398c-.107-.224-.259-.329-.48-.329-.29 0-.599.174-.732.255-.105.624.354 1.19.662 1.302M26.093 21.766c-.533.58-1.577 1.589-1.627 1.64l-.063.063-3.296-.052a3.403 3.403 0 0 1-.107.808l-.026.104 3.92.705c.408-.285 1.53-1.105 1.967-1.426-.317-.463-.347-1.012-.276-1.4a1.961 1.961 0 0 1-.492-.442"/>
        <path fill="#FFFFFE" d="M26.539 17.803c-.76.752-1.488 1.031-2.138 1.096-.119.012-.238.02-.36.02h-.015a3.603 3.603 0 0 1-.712-.075c-.043.17-.097.523.058.86.138.304.418.53.826.68l.137.054.002.148c0 .044.033 1.003 1.078 1.27.17-.176.325-.335.44-.468-.213-.503-.102-1.016.209-1.267-.014.053-.15 1.312.858 1.78l.167.078-.05.177c-.016.053-.353 1.271.869 1.724l.217.082-.096.21c-.022.047-.5 1.151.627 1.78h2.447v-1.943c-.87-.106-1.238-.805-1.333-1.3-.405-.07-.718-.245-.933-.53-.513-.675-.072-1.294-.066-1.327 0 .005 0 .664.407 1.071.202.196.44.348.801.382l.178.016.015.182c.003.039.102.93.931 1.07l-.002-3.968c0-.614.18-1.232.395-1.802h-4.957M19.955 19.62l-.067 2.526.288.045.702-2.425-.357-.745-.566.6M21.476 28.974a.144.144 0 0 1 .018-.287c.081.003.14.075.136.153a.146.146 0 0 1-.154.134m6.22 2.236c.023 0 .047.003.07.009.437.125.548 1.7 1.314 1.84.076.016.145.02.205.02.222 0 .354-.094.497-.262 0 0-.386-.606-.674-1.015-.383-.535-.68-1.181-1.395-1.181-.016 0-.037 0-.054.002-.235.012-.38.127-.38.127a1.472 1.472 0 0 0-.801-.244c-.447 0-.794.205-.969.205h-.006l-1.593-.157c-.249-.024-.446-.275-.517-.373l-.027-.043c0-.043 0-.087-.003-.126-.054-1.304-1.062-1.86-1.422-1.87 0 0 .043-.247-.054-.341l-.352.426-1.152-.579.822.96-.696.783c-.088.09-.077.21-.04.26l.3.266.382-.232c.019-.013.054-.018.096-.018.105 0 .264.028.406.028.156 0 .29-.034.307-.18-.048.483-.497 1.322-.202 1.982l.218.498-1.409-.203-.659 1.113c-.203.37-.235.771-.04.99l.247.308s.346-.367.423-.608l-.111-.123c-.095-.104-.09-.196-.032-.308l.413-.685 1.662.392.089-.15c.113-.188.275-.243.453-.243.074 0 .149.009.226.02.31.062.817.143 1.325.143.557 0 1.11-.1 1.405-.43.602.893 1.823 1.035 1.727 1.489l-.322 1.529c.212-.01.418-.023.612-.05l.306-1.591c.033-.173.066-.406.066-.406-.118-.12-.403-.372-.564-.679-.216-.414-.098-.63-.299-1.168 0 0 .062-.125.203-.125"/>
        <path fill="#FFFFFE" d="M19.206 32.657s.551-.227.6-.388l-.073-.184c-.053-.12-.046-.25.055-.32l.595-.411.994.19s-.18-.225-.163-.525l-.948-.201-.894.545a.868.868 0 0 0-.285 1.033l.119.261M26.235 35.249c.177-.007.375-.01.59-.01 0 0 .511-1.496.54-1.543a12.46 12.46 0 0 1-1.112-.587c.153.227.522.486.449.687l-.467 1.453"/>
        <path fill="#FFE52B" d="M31.103 26.38H16.966v5.317c0 2.175 1.574 3.537 3.896 3.537 1.94 0 2.452.075 3.174.791.497-.496.908-.681 1.753-.75l.02-.083.446-1.377c-.025-.03-.754-.858-.754-.858-.289.096-.532.111-.939.111-.418 0-.89-.048-1.403-.144a.654.654 0 0 0-.147-.017c-.063 0-.067.005-.084.036l-.088.146-.162.267-.305-.07-1.357-.32-.187.307.028.033.166.182-.074.238c-.1.309-.424.671-.522.77l-.34.365-.308-.39-.232-.292c-.245-.273-.301-.69-.164-1.129a.04.04 0 0 1-.013.006l-.383.158-.172-.374-.12-.265a1.292 1.292 0 0 1 .429-1.56l1.092-.618 1.039.205c.024-.1.062-.457.092-.548-.02-.002-.039-.006-.06-.006l-.598.223-.578-.398s-.226-.218-.021-.436l.559-.847-1.418-1.778 2.179.894.144-.18.294-.352.334.318c.095.09.149.203.175.315.6.234 1.676.923 1.77 2.044l-.336.135v.008c.078.091.141.129.16.132l1.555.153c.04-.006.089-.024.144-.04a2.51 2.51 0 0 1 .827-.161c.28 0 .55.064.812.185.095-.036.214-.062.35-.071l.075-.002c.832 0 1.246.621 1.578 1.118.055.086.11.167.168.247.29.41.67 1.01.685 1.036l.172.268-.21.244c-.161.187-.405.406-.822.406-.086 0-.18-.01-.281-.028a1.243 1.243 0 0 1-.247-.076c-.012.082-.03.18-.044.264l-.273 1.423c1.63-.401 2.666-1.632 2.666-3.395l-.003-5.317M16.966 25.952h10.995c-.549-.568-.54-1.286-.4-1.752a1.832 1.832 0 0 1-.41-.27 197.68 197.68 0 0 1-2.085 1.511l-.073.049-4.316-.78h-.087a3.57 3.57 0 0 1-.42-.024.42.42 0 0 1-.752.15.417.417 0 0 1-.076-.316l.016-.094c-.445-.312-.856-1.013-.674-1.751l.018-.079.063-.044c.009-.007.083-.058.195-.121l-.313-.048a.218.218 0 0 1-.179-.247c.02-.117.13-.2.246-.178l.748.118.067-2.63 1.112-1.176.694 1.46-.732 2.53.66.105a.215.215 0 0 1 .178.247.211.211 0 0 1-.212.177l-.034-.001-.536-.087c.007.017.017.026.024.043a.586.586 0 0 0 .258.239l3.29.052a68.6 68.6 0 0 0 .84-.832 1.774 1.774 0 0 1-1.154-1.467c-.452-.193-.765-.482-.938-.857-.21-.465-.136-.93-.079-1.157-.44-.16-.9-.452-1.371-.92h-4.956c.213.571.393 1.19.393 1.803v6.347"/>
        <path fill="#1A1919" d="M21.493 28.687a.144.144 0 0 0-.154.134.142.142 0 0 0 .137.153.146.146 0 0 0 .154-.134.146.146 0 0 0-.137-.153M28.046 39.837l-.646-1.776c.768-.234 2.09-.737 2.681-1.072l-.395 1.293 1.338.444c-.81.407-1.79.785-2.978 1.111m-4.01 1.596c-1.556 0-3.332-.357-3.856-.544l.795-2.151c.66.193 2.032.397 3.028.391h.063c.995.006 2.366-.198 3.028-.391l.794 2.151c-.523.187-2.299.544-3.852.544m-6.991-2.707l1.339-.444-.396-1.293c.59.335 1.914.838 2.68 1.072l-.646 1.776c-1.184-.326-2.17-.704-2.977-1.11m14.04-.395l-.815-.313.225-.841.248-.917s-1.443.782-3.477 1.37c-.577.165-1.014.241-1.014.241v.625s-1.088.189-2.186.189h-.063c-1.1 0-2.186-.19-2.186-.19v-.624s-.438-.076-1.014-.24c-2.033-.588-3.475-1.371-3.475-1.371l.244.917.23.841-.817.313-.907.338c1.038.501 2.478 1.231 3.795 1.592l-.311.848s1.67.761 4.453.768v.002h.038v-.002c2.786-.007 4.454-.768 4.454-.768l-.312-.848c1.318-.36 2.759-1.09 3.793-1.592l-.904-.338M20.634 4.095l.37.038.16-.337.466-.998.866.448.335.171.268-.264.934-.927.936.927.268.264.335-.17.862-.449.473.998.156.337.37-.038.355-.043a8.376 8.376 0 0 0-.367.999c-.935-.521-2.149-.817-3.388-.817-1.233 0-2.447.296-3.384.817a8.588 8.588 0 0 0-.367-.999l.352.043zm3.399.66c1.658 0 2.984.548 3.717 1.134 0 0 .217-1.31.96-2.466l-1.335.152-.699-1.485-1.341.692-1.302-1.286-1.298 1.286-1.345-.692-.697 1.485-1.335-.152c.743 1.155.96 2.466.96 2.466.738-.586 2.06-1.135 3.715-1.135zM45.043 26.794s-.577 1.004-1.901 1.004h-.017c-1.59-.009-2.23-.979-2.23-.979s.092 1.262-.48 2.964c-.69 2.053.005 3.519.005 3.519s-.37.1-.799.1c-.163 0-.333-.016-.495-.058-1.327-.316-1.658-1.524-1.658-1.524s.122 4.082-4.638 4.082h-.037s.42-.57.543-2.212c.226-3.03 2.277-3.445 2.277-3.445s-1.095-.138-1.57-.563c-.741-.672-.688-1.45-.688-1.45 1.674-.022 2.771-.592 3.607-1.56.906-1.047 1.055-2.175 1.055-2.175s-.901.816-2.642.816c-.153 0-.316-.007-.485-.023-.824-.067-1.393-.591-1.393-.591 1.813-1.163 3.084-3.19 1.957-6.244-.904-2.448-3.075-4.276-5.26-5.653-.727-.454-1.133-.96-1.133-1.394 0-1.022 1.455-1.055 2.05-1.742.69-.8.258-2.094-.339-2.874 0 0 .2-.041.518-.041.629 0 1.718.158 2.612 1.086 1.188 1.229.696 2.568.696 2.568l.318.062c.19.04.38.048.577.058l.128.002c1.726 0 2.497-1.805 2.497-1.805s1.836 2.258-.867 4.027c-.464.302-.67.583-.616.882l.042.196.193.034c1.958.531 2.95 1.883 4.16 3.418 1.837 2.336 4.437 2.411 4.758 2.411h.034s-.593 1.873-2.342 1.873c-.029 0-.054 0-.083-.002-.802-.028-1.215-.336-1.215-.336s-.312 4.251 2.861 5.569m-1.563-4.658c2.144 0 2.862-2.18 2.89-2.273l.24-.77-.803.026h-.003c-.283 0-2.649-.063-4.325-2.194l-.159-.198c-1.096-1.393-2.134-2.719-3.993-3.323.054-.049.131-.108.237-.177.986-.648 1.559-1.436 1.703-2.35.21-1.375-.667-2.472-.706-2.517l-.596-.738-.373.876c-.025.055-.652 1.456-1.971 1.456h-.099c-.09-.005-.177-.008-.261-.016.046-.624-.067-1.592-.946-2.5C33.26 6.345 31.966 6.18 31.29 6.18c-.361 0-.602.045-.628.047l-.902.18.557.733c.436.565.831 1.608.363 2.152-.151.174-.46.314-.754.455-.607.279-1.437.67-1.437 1.66 0 .64.498 1.312 1.4 1.882 2.669 1.679 4.316 3.43 5.027 5.364 1.1 2.974-.336 4.67-1.73 5.565l-.625.402.548.503c.074.064.742.655 1.732.74.188.011.366.022.535.022a5.5 5.5 0 0 0 1.612-.234c-.12.211-.27.428-.456.644-.797.923-1.777 1.344-3.187 1.366l-.524.009-.04.525c-.005.106-.044 1.081.878 1.91.141.128.311.233.49.32-.625.562-1.26 1.543-1.384 3.223-.104 1.402-.438 1.92-.442 1.926l-.579.885 1.046.013c1.73 0 3.053-.476 3.97-1.422a4.495 4.495 0 0 0 1.036-1.75 2.81 2.81 0 0 0 1.825.67c.489 0 .898-.103.943-.114l.668-.177-.295-.624c-.022-.05-.579-1.302.02-3.087.259-.772.39-1.463.455-2.001.421.219.984.4 1.712.402 1.654 0 2.384-1.236 2.416-1.287l.326-.568-.604-.248c-1.97-.819-2.407-3.016-2.494-4.205.178.034.381.066.611.072l.101.002"/>
        <path fill="#1A1919" d="M41.072 12.806c.399 0 .864.137 1.305.592 1.381 1.402 2.666 1.48 2.666 1.48-.233.517-.91.97-1.611.97a1.47 1.47 0 0 1-.486-.08c-.95-.32-1.291-1.745-2.96-2.634 0 0 .465-.328 1.086-.328m-1.359.835c.8.426 1.266.997 1.674 1.503.402.494.782.97 1.38 1.167.21.073.435.107.665.107.894 0 1.792-.547 2.133-1.305l.343-.76-.83-.049c-.038-.001-1.105-.099-2.292-1.311-.488-.497-1.078-.759-1.714-.759-.778 0-1.354.388-1.417.429l-.762.537.82.44M40.09 21.213v.03c-.482-3.883-3.3-6.687-6.438-8.39-.29-.157-.559-.288-.819-.414.955.148 2.494.165 3.681-.864 0 0-1.816 1.336-5.538.122 1.03.669 3.032 1.612 4.86 3.14 4.567 4.013 1.3 7.928 1.3 7.928 1.64-1.713 1.71-3.548 1.226-5.047.864 1.44 1.417 3.185 1.33 5.339-.125 3.085-1.82 5.753-3.604 7.897-.858 1.04-1.05 2.318-1.05 2.318s.346-1.128 1.339-2.289c1.912-2.238 3.547-4.563 3.761-7.914.197.608 1.012 2.298 2.304 2.935 0 0-1.624-.978-2.353-4.791M15.239 35.902c-4.761 0-4.64-4.082-4.64-4.082s-.331 1.208-1.658 1.524a1.934 1.934 0 0 1-.494.058c-.427 0-.797-.1-.797-.1s.692-1.466.002-3.519c-.57-1.701-.478-2.964-.478-2.964s-.64.97-2.23.98h-.017c-1.323 0-1.9-1.005-1.9-1.005 3.17-1.318 2.86-5.569 2.86-5.569s-.412.308-1.216.336c-.03.002-.056.002-.084.002-1.75 0-2.342-1.873-2.342-1.873h.036c.322 0 2.92-.075 4.756-2.411 1.21-1.535 2.203-2.886 4.158-3.418l.197-.034.041-.196c.055-.299-.15-.58-.615-.882-2.701-1.77-.867-4.026-.867-4.026s.768 1.804 2.499 1.804l.126-.002c.194-.01.386-.018.577-.058l.318-.062s-.495-1.34.696-2.568c.895-.928 1.983-1.085 2.611-1.085.319 0 .517.04.517.04-.595.78-1.027 2.075-.338 2.874.596.687 2.049.719 2.049 1.742 0 .434-.405.94-1.132 1.394-2.187 1.377-4.357 3.205-5.26 5.653-1.126 3.054.145 5.081 1.96 6.244 0 0-.57.524-1.396.59-.168.017-.33.024-.487.024-1.739 0-2.639-.816-2.639-.816s.15 1.128 1.05 2.176c.841.967 1.937 1.537 3.612 1.56 0 0 .053.777-.687 1.45-.476.424-1.571.562-1.571.562s2.052.416 2.278 3.445c.123 1.641.539 2.212.539 2.212h-.034zm.506-.327c-.001-.005-.334-.524-.44-1.926-.125-1.68-.76-2.66-1.387-3.224.18-.086.349-.191.49-.32.922-.828.883-1.803.876-1.909l-.035-.525-.528-.009c-1.405-.022-2.388-.443-3.185-1.366a4.252 4.252 0 0 1-.455-.644c.438.134.975.234 1.61.234.17 0 .348-.01.535-.023a3.155 3.155 0 0 0 1.734-.74l.549-.502-.626-.402c-1.399-.895-2.83-2.591-1.73-5.565.711-1.934 2.356-3.686 5.028-5.364.902-.57 1.396-1.241 1.396-1.882 0-.99-.827-1.381-1.435-1.66-.295-.142-.603-.281-.753-.455-.47-.544-.073-1.587.362-2.152l.56-.733-.905-.18c-.027-.002-.265-.047-.628-.047-.676 0-1.967.164-3.022 1.257-.88.908-.995 1.876-.95 2.5-.084.008-.17.011-.26.016h-.096c-1.324 0-1.948-1.401-1.973-1.456l-.371-.876-.603.738c-.034.045-.914 1.142-.7 2.517.142.914.717 1.702 1.703 2.35.107.069.182.128.235.177-1.86.604-2.898 1.93-3.994 3.323l-.158.198c-1.675 2.131-4.045 2.194-4.328 2.194l-.808-.025.246.769c.028.093.743 2.273 2.888 2.273l.104-.002c.227-.006.43-.038.611-.073-.088 1.19-.526 3.387-2.498 4.206l-.602.248.326.568c.032.051.763 1.287 2.42 1.287a3.679 3.679 0 0 0 1.709-.402c.063.538.195 1.23.454 2.001.6 1.785.042 3.037.02 3.087l-.296.623.67.178c.043.01.455.114.942.114a2.798 2.798 0 0 0 1.826-.67 4.5 4.5 0 0 0 1.034 1.75c.92.946 2.242 1.422 3.97 1.422l1.047-.014-.58-.884z"/>
        <path fill="#1A1919" d="M5.69 13.397c.442-.455.907-.59 1.309-.59.617 0 1.084.327 1.084.327-1.667.889-2.011 2.314-2.964 2.635-.157.056-.32.08-.483.08-.7 0-1.378-.453-1.61-.971 0 0 1.284-.079 2.664-1.481m-1.054 3.02c.23 0 .455-.033.667-.106.597-.198.977-.672 1.379-1.167.41-.506.872-1.077 1.672-1.503l.822-.441-.764-.537c-.064-.04-.637-.428-1.413-.428-.638 0-1.23.26-1.717.759-1.187 1.212-2.252 1.31-2.29 1.31l-.829.049.34.76c.342.758 1.24 1.305 2.133 1.305M8.377 23.057c-.089-2.154.464-3.9 1.33-5.34-.483 1.5-.418 3.335 1.226 5.048 0 0-3.269-3.915 1.301-7.93 1.827-1.526 3.828-2.47 4.857-3.138-3.72 1.214-5.536-.122-5.536-.122 1.186 1.03 2.725 1.012 3.679.863-.258.127-.529.258-.817.414-3.138 1.704-5.956 4.508-6.44 8.39v-.03c-.728 3.813-2.35 4.792-2.35 4.792 1.29-.637 2.103-2.327 2.301-2.935.216 3.351 1.85 5.676 3.763 7.914.992 1.161 1.342 2.29 1.342 2.29s-.194-1.28-1.056-2.32c-1.78-2.143-3.476-4.811-3.6-7.896M22.96 15.202v.77c.265-.323.777-.258.777-.258v1.11s-.017.546-.211.782h1.11c-.191-.236-.21-.782-.21-.782v-1.11s.513-.065.777.257v-.77h-2.244M22.482 10.636c.356.281.56.328.567.333l.139.064v-.725l-1.305-.549s.011.42.6.877M25.585 10.636c.59-.457.6-.877.6-.877l-1.305.55v.724l.139-.064c.007-.005.211-.052.566-.333"/>
        <path fill="#1A1919" d="M24.033 8.705l-3.144-1.242c.268-.633 1.5-1.17 3.144-1.173 1.645.002 2.878.54 3.144 1.173l-3.144 1.242zm2.343 3.89l-2.112 1.114V9.2l2.867-.974-.755 4.368zm1.31 1.197l.965.56h.014l.243.142c-.546.151-.963.424-1.312.782l-.039.038a4.703 4.703 0 0 0-.494.628l-.035.052c-.08.12-.157.247-.233.38-.688 1.184-1.786 1.893-2.762 1.894-.975-.001-2.073-.71-2.76-1.895a7.695 7.695 0 0 0-.23-.373c-.016-.023-.03-.046-.045-.066a6.743 6.743 0 0 0-.255-.35 4.837 4.837 0 0 0-.23-.267c-.016-.013-.027-.03-.041-.043a2.847 2.847 0 0 0-1.314-.78l.246-.141h.01l.968-.561.993-.569 2.653 1.444.005-.006.008.006 2.651-1.444.993.569zm3.81 4.01c-.216.57-.395 1.189-.395 1.803l.002 3.968c-.83-.14-.927-1.031-.93-1.07l-.016-.182-.178-.016a1.26 1.26 0 0 1-.8-.382c-.407-.407-.408-1.066-.407-1.071-.006.033-.448.652.065 1.328.215.284.528.46.933.528.094.496.463 1.195 1.333 1.301v1.942h-2.446c-1.128-.627-.65-1.732-.628-1.78l.095-.209-.216-.081c-1.221-.453-.885-1.672-.868-1.725l.049-.177-.167-.079c-1.008-.467-.872-1.726-.858-1.78-.31.252-.423.765-.209 1.268-.115.133-.27.292-.44.468a1.37 1.37 0 0 1-1.078-1.27l-.002-.148-.137-.053c-.408-.151-.688-.377-.827-.682-.154-.336-.1-.69-.057-.86a3.442 3.442 0 0 0 .711.075h.017c.121 0 .24-.007.358-.02.652-.064 1.38-.343 2.139-1.096h4.957zm-3.056 17.29l.273-1.423c.015-.085.032-.182.044-.264.077.032.159.059.247.075.102.02.196.03.281.03.417 0 .66-.22.822-.407l.21-.244-.172-.268a26.333 26.333 0 0 0-.685-1.036 6.247 6.247 0 0 1-.168-.248c-.332-.496-.746-1.117-1.579-1.117l-.074.002a1.178 1.178 0 0 0-.35.072 1.895 1.895 0 0 0-.811-.186 2.52 2.52 0 0 0-.827.16c-.056.016-.105.034-.144.041l-1.555-.153c-.02-.004-.083-.04-.16-.133v-.007l.336-.135c-.095-1.121-1.171-1.81-1.771-2.044a.634.634 0 0 0-.175-.316l-.334-.317-.294.353-.144.18-2.179-.895 1.418 1.778-.56.847c-.204.218.022.436.022.436l.578.398.598-.224c.02 0 .04.005.06.008-.03.09-.067.447-.092.547l-1.04-.204-1.091.616a1.293 1.293 0 0 0-.43 1.561l.121.265.173.374.382-.158a.03.03 0 0 0 .013-.006c-.137.438-.08.856.164 1.13l.232.29.308.39.34-.363c.098-.1.422-.461.522-.772l.073-.237-.165-.182-.028-.032.187-.307 1.356.32.306.07.25-.414c.017-.031.021-.036.084-.036.048 0 .096.005.147.017.513.096.985.144 1.404.144.406 0 .649-.015.938-.111 0 0 .729.827.754.858l-.446 1.377-.02.083c-.845.069-1.256.254-1.753.75-.722-.716-1.234-.791-3.174-.791-2.322 0-3.896-1.362-3.896-3.537V26.38h14.137l.002 5.317c0 1.763-1.034 2.994-2.665 3.395zm-8.708-3.007l.074.184c-.049.161-.6.388-.6.388l-.12-.26a.868.868 0 0 1 .286-1.034l.894-.545.948.201c-.018.3.162.526.162.526l-.994-.191-.594.411c-.1.07-.108.2-.056.32zm8.559 1.503l-.305 1.59c-.196.028-.401.042-.613.05l.321-1.528c.096-.454-1.124-.596-1.726-1.49-.294.332-.848.43-1.405.43-.508 0-1.015-.08-1.325-.141a1.444 1.444 0 0 0-.226-.021c-.178 0-.34.055-.453.243l-.089.15-1.662-.392-.413.685c-.059.111-.063.204.032.308l.111.123c-.077.242-.422.608-.422.608l-.247-.308c-.196-.219-.164-.62.04-.99l.659-1.113 1.408.203-.218-.498c-.295-.66.153-1.498.202-1.982-.017.146-.151.18-.307.18-.142 0-.3-.028-.406-.028-.041 0-.077.004-.096.019l-.382.23-.3-.265c-.037-.051-.048-.17.04-.26l.697-.782-.824-.961 1.153.578.352-.425c.097.094.054.342.054.342.36.009 1.369.566 1.422 1.868.003.04.003.084.003.127l.027.043c.07.098.268.349.517.372l1.593.158h.006c.174 0 .522-.205.969-.205.242 0 .512.062.8.244 0 0 .146-.115.38-.127.018-.002.039-.002.055-.002.714 0 1.011.646 1.395 1.181.288.409.673 1.015.673 1.015-.142.169-.274.263-.496.263-.06 0-.13-.005-.205-.02-.766-.141-.877-1.716-1.314-1.841a.288.288 0 0 0-.07-.009c-.14 0-.202.126-.202.126.2.537.083.754.299 1.167.16.307.446.56.563.679 0 0-.032.232-.065.406zm-1.466 1.65c-.215 0-.413.004-.59.01l.467-1.452c.073-.201-.296-.46-.449-.687.23.145.825.46 1.112.587-.029.047-.54 1.543-.54 1.543zm-6.937-13.092l.067-2.525.566-.6.357.745-.702 2.425-.288-.045zm.408.783a1 1 0 0 0 .376.398c-.003.182-.02.464-.069.715a1.665 1.665 0 0 1-.041.158c-.008.032-.018.059-.024.08-.174 0-.513-.021-.792-.123-.308-.113-.768-.678-.662-1.302.133-.081.443-.255.732-.255.221 0 .374.105.48.33zm6.565.679c-.436.32-1.56 1.141-1.967 1.426l-3.92-.705.026-.105a3.4 3.4 0 0 0 .107-.808l3.296.053.063-.064c.05-.05 1.094-1.059 1.626-1.639.127.16.284.31.493.443-.071.387-.041.936.276 1.399zm-5.332-5.806c.47.468.932.76 1.37.92-.056.226-.13.693.08 1.157.173.376.486.664.938.857.05.463.343 1.16 1.154 1.467-.356.358-.701.696-.84.832l-3.29-.052a.586.586 0 0 1-.258-.24c-.007-.016-.017-.025-.024-.042l.536.087a.225.225 0 0 0 .034.002.211.211 0 0 0 .212-.179.215.215 0 0 0-.178-.246l-.66-.104.732-2.53-.694-1.46-1.11 1.175-.07 2.63-.747-.118c-.115-.023-.225.062-.246.179a.218.218 0 0 0 .179.246l.313.047a2.316 2.316 0 0 0-.194.122l-.064.044-.018.078c-.181.739.23 1.439.674 1.753l-.016.093a.413.413 0 0 0 .076.317.414.414 0 0 0 .344.177c.193 0 .36-.133.408-.327.165.02.316.023.42.023h.088l4.315.78.073-.049c.343-.24 1.654-1.195 2.084-1.512.118.102.25.194.41.27-.14.467-.148 1.186.402 1.752H16.966v-6.346c0-.614-.18-1.232-.393-1.803h4.956zm-.595-9.575l2.87.974v4.508l-2.113-1.114-.757-4.368zm7-.544c0-1.1-1.85-2.09-3.895-2.09h-.011c-2.044 0-3.895.99-3.895 2.09l.04.27.816 4.685-.82.476-2.12 1.239h.007s-.477.244-.698.396c-.808.56-.979 1.38-.51 1.717.115-.668.643-1.364 1.63-1.364.712 0 1.254.366 1.692.917.113.139.22.288.319.447.122.202.246.378.368.549h-5.463c.401.806.783 1.661.783 2.59v12.092c0 2.928 2.25 4.324 4.685 4.324 1.882 0 2.135-.087 3.174.948 1.033-1.035 1.287-.948 3.17-.948 2.436 0 4.684-1.396 4.684-4.324V19.605c0-.929.382-1.784.784-2.59H27.21c.121-.17.244-.347.367-.549.102-.16.208-.308.318-.447.442-.552.983-.917 1.694-.917.987 0 1.514.696 1.631 1.364.47-.338.3-1.157-.513-1.717-.218-.152-.695-.396-.695-.396h.007l-2.124-1.239-.817-.476.817-4.684.04-.27zM66.976 17.507c.158-.249.32-.494.49-.737h.099v5.508h2.502v-9.352h-2.502l-2.802 4.265c-.158.243-.315.478-.471.706-.156.23-.315.475-.47.728h-.1v-5.7h-2.501v9.353h2.502c.47-.65.931-1.316 1.38-1.998.452-.682.907-1.355 1.363-2.02.183-.252.354-.505.51-.753M74.93 18.396h3.722v3.882h2.503v-9.352h-2.503v3.558H74.93v-3.558h-2.503v9.352h2.503v-3.882M88.614 20.137c-.248.178-.575.268-.98.268H86.02v-2.296h1.595c.418 0 .75.096 1 .287.246.191.37.479.37.861 0 .408-.124.701-.37.88m2.872-.86c0-.958-.332-1.7-.994-2.23-.665-.528-1.554-.794-2.67-.794H86.02v-3.327h-2.503v9.353h4.416c1.079 0 1.941-.241 2.585-.718.648-.479.97-1.24.97-2.284M121.127 20.405c-.307.14-.629.222-.966.247v-6.044c.82.065 1.452.373 1.895.928.443.556.666 1.241.666 2.056 0 .486-.072.913-.217 1.283-.142.37-.332.681-.567.936a2.524 2.524 0 0 1-.811.594zm-3.316.23a3.014 3.014 0 0 1-1.002-.25 2.504 2.504 0 0 1-.829-.594 2.808 2.808 0 0 1-.56-.927c-.14-.363-.208-.786-.208-1.272 0-.815.227-1.5.68-2.056.453-.555 1.094-.863 1.92-.928v6.026zm5.87.418c.44-.419.785-.922 1.041-1.51.254-.587.383-1.256.383-2.01 0-.7-.125-1.337-.373-1.91a4.441 4.441 0 0 0-1.03-1.483 4.774 4.774 0 0 0-1.57-.975 6.44 6.44 0 0 0-1.971-.412V9.236l-2.35.9v2.617a6.095 6.095 0 0 0-1.96.43c-.61.251-1.14.582-1.586.996a4.537 4.537 0 0 0-1.053 1.473 4.532 4.532 0 0 0-.383 1.881c0 .754.118 1.426.354 2.02a4.329 4.329 0 0 0 1.015 1.528c.44.43.965.761 1.575.997a6.6 6.6 0 0 0 2.038.41v3.962l2.369-.9v-3.08a6.056 6.056 0 0 0 1.942-.42 4.799 4.799 0 0 0 1.559-.997zM136.097 18.875c-.144.37-.333.681-.567.936a2.539 2.539 0 0 1-.81.594c-.308.14-.63.222-.969.247v-6.044c.82.065 1.453.373 1.897.928.442.556.663 1.241.663 2.056 0 .486-.07.913-.214 1.283zm-4.693 1.759a3.017 3.017 0 0 1-1.004-.249 2.507 2.507 0 0 1-.827-.594 2.798 2.798 0 0 1-.563-.928c-.138-.362-.206-.785-.206-1.27 0-.816.226-1.501.68-2.057.453-.555 1.093-.863 1.92-.928v6.026zm6.91-1.09c.255-.588.383-1.257.383-2.01 0-.7-.125-1.339-.373-1.912a4.435 4.435 0 0 0-1.03-1.482 4.767 4.767 0 0 0-1.57-.974 6.378 6.378 0 0 0-1.973-.412V9.236l-2.347.9v2.618a6.053 6.053 0 0 0-1.96.43c-.611.25-1.14.58-1.586.996a4.523 4.523 0 0 0-1.053 1.471 4.527 4.527 0 0 0-.385 1.882c0 .754.117 1.426.356 2.02a4.332 4.332 0 0 0 1.014 1.53c.44.428.965.76 1.576.995.61.234 1.29.371 2.038.41v3.961l2.367-.898V22.47a6.113 6.113 0 0 0 1.942-.42 4.84 4.84 0 0 0 1.56-.997c.44-.42.786-.922 1.041-1.51zM51.083 11.128h3.642v11.16h2.602v-11.16h3.52V8.95h-9.764v2.178M101.9 12.975h-2.853l-3.353 3.974v-4.023h-2.482v9.363h2.482v-4.554l3.274 4.554h2.95l-3.68-5.01 3.662-4.304M108.872 18.75a3.124 3.124 0 0 1-.395.91 1.892 1.892 0 0 1-.644.61 1.74 1.74 0 0 1-.881.22c-.673 0-1.187-.253-1.545-.754-.357-.503-.535-1.215-.535-2.134 0-.815.174-1.492.515-2.026.345-.536.845-.804 1.505-.804.699 0 1.226.266 1.584.794.357.53.534 1.221.534 2.076 0 .394-.046.763-.138 1.108m1.372-4.686a3.981 3.981 0 0 0-1.445-.966 4.968 4.968 0 0 0-1.847-.335c-.669 0-1.284.112-1.848.335a4.173 4.173 0 0 0-1.456.956c-.405.415-.72.926-.943 1.53-.222.605-.334 1.292-.334 2.058 0 .739.109 1.408.324 2.008.215.6.521 1.108.915 1.53.394.42.868.745 1.426.976.556.228 1.181.343 1.877.343.667 0 1.284-.112 1.848-.334a4.115 4.115 0 0 0 1.455-.966c.406-.422.724-.935.952-1.54.23-.605.345-1.292.345-2.057 0-.738-.112-1.41-.335-2.007a4.42 4.42 0 0 0-.934-1.53M60.186 31.897c0-.532-.057-1.028-.169-1.486a3.617 3.617 0 0 0-.513-1.192 2.446 2.446 0 0 0-.857-.785 2.436 2.436 0 0 0-1.188-.28c-.45 0-.846.093-1.188.28a2.41 2.41 0 0 0-.85.778 3.755 3.755 0 0 0-.514 1.178 5.966 5.966 0 0 0-.175 1.493c0 .515.056.998.168 1.451.113.454.284.851.514 1.192.229.341.515.61.857.807.342.196.738.294 1.188.294.46 0 .86-.1 1.202-.302.342-.2.625-.47.85-.806.225-.336.394-.731.506-1.185.112-.453.169-.932.169-1.437zm1.094-.014c0 .71-.092 1.356-.274 1.935a4.485 4.485 0 0 1-.77 1.486c-.333.412-.733.73-1.2.954a3.58 3.58 0 0 1-1.57.337c-.608 0-1.145-.118-1.613-.351a3.475 3.475 0 0 1-1.191-.975 4.352 4.352 0 0 1-.744-1.486 6.682 6.682 0 0 1-.252-1.886c0-.673.086-1.297.26-1.872.173-.574.42-1.072.743-1.493.322-.42.72-.75 1.191-.988.472-.239 1.007-.358 1.606-.358.58 0 1.103.112 1.57.337a3.41 3.41 0 0 1 1.2.96c.33.416.588.911.77 1.486.182.575.274 1.214.274 1.914zM67.168 36.454V30.48h-3.477v5.973h-.996v-6.856h5.469v6.856h-.996M74.08 30.453h-2.692v2.412c0 .439-.014.874-.042 1.304-.028.43-.112.818-.252 1.164-.14.345-.362.63-.666.855-.304.224-.727.35-1.269.378l-.084-.799c.337-.065.596-.17.778-.316.182-.144.318-.343.407-.596.089-.252.142-.567.161-.946.018-.378.028-.843.028-1.395v-2.902h4.627v6.842h-.995v-6.001M80.797 33.524a4.76 4.76 0 0 0-.838-.379 3.2 3.2 0 0 0-1.006-.14c-.447 0-.824.119-1.131.357-.307.239-.46.582-.46 1.031 0 .449.13.79.39 1.024.26.234.638.35 1.132.35.362-.019.709-.116 1.04-.294.33-.178.621-.393.873-.645v-1.304zm-1.473-4.038c.795 0 1.404.185 1.83.553.425.37.638.924.638 1.662v4.753h-.995v-.673h-.029c-.364.327-.726.542-1.086.645-.36.103-.703.155-1.031.155-.27 0-.542-.04-.813-.12a2.158 2.158 0 0 1-.736-.377 1.921 1.921 0 0 1-.533-.664c-.135-.27-.203-.6-.203-.992 0-.335.063-.638.19-.908.125-.27.303-.501.532-.692.229-.191.5-.338.813-.44a3.293 3.293 0 0 1 1.03-.154c.3 0 .601.03.905.09.304.059.624.18.96.364v-.848c0-.528-.132-.913-.398-1.152-.265-.241-.663-.361-1.193-.361-.335 0-.648.042-.936.126a5.503 5.503 0 0 0-.865.337l-.337-.78a5.88 5.88 0 0 1 1.037-.38 4.762 4.762 0 0 1 1.22-.144zM85.914 30.453v6h-.996v-6h-2.173v-.841h5.356v.84h-2.187M92.462 33.524a4.76 4.76 0 0 0-.838-.379 3.198 3.198 0 0 0-1.005-.14c-.447 0-.824.119-1.131.357-.308.239-.461.582-.461 1.031 0 .449.13.79.39 1.024.261.234.638.35 1.132.35a2.44 2.44 0 0 0 1.04-.294c.33-.178.622-.393.873-.645v-1.304zm-1.472-4.038c.794 0 1.404.185 1.83.553.425.37.637.924.637 1.662v4.753h-.995v-.673h-.028c-.365.327-.727.542-1.087.645-.36.103-.703.155-1.03.155-.272 0-.542-.04-.813-.12a2.163 2.163 0 0 1-.737-.377 1.921 1.921 0 0 1-.533-.664c-.135-.27-.203-.6-.203-.992 0-.335.063-.638.19-.908.126-.27.303-.501.532-.692.23-.191.5-.338.814-.44a3.295 3.295 0 0 1 1.03-.154c.299 0 .6.03.904.09.304.059.624.18.961.364v-.848c0-.528-.133-.913-.398-1.152-.266-.241-.663-.361-1.194-.361-.335 0-.647.042-.935.126a5.503 5.503 0 0 0-.866.337l-.337-.78a5.896 5.896 0 0 1 1.038-.38 4.762 4.762 0 0 1 1.22-.144z"/>
    </g>
</svg>
