<?xml version="1.0" encoding="utf-8"?>
<!-- Generator: Adobe Illustrator 21.0.2, SVG Export Plug-In . SVG Version: 6.00 Build 0)  -->
<svg version="1.1" id="Capa_1" xmlns="http://www.w3.org/2000/svg" xmlns:xlink="http://www.w3.org/1999/xlink" x="0px" y="0px"
	 viewBox="0 0 408 102" style="enable-background:new 0 0 408 102;" xml:space="preserve">
<style type="text/css">
	.st0{fill:#A8A8A8;}
</style>
<g>
	<g id="keyboard-control">
		<path class="st0" d="M152.3,35.8c-9.5,0-17.3,7.7-17.3,17.3s7.8,17.3,17.3,17.3s17.3-7.7,17.3-17.3S161.8,35.8,152.3,35.8z
			 M255.8,35.8c-9.5,0-17.3,7.7-17.3,17.3s7.8,17.3,17.3,17.3S273,62.5,273,53S265.2,35.8,255.8,35.8z M204,35.8
			c-9.5,0-17.3,7.7-17.3,17.3s7.7,17.3,17.3,17.3s17.3-7.7,17.3-17.3S213.5,35.8,204,35.8z"/>
	</g>
</g>
</svg>
