<?xml version="1.0" encoding="utf-8"?>
<!-- Generator: Adobe Illustrator 21.0.2, SVG Export Plug-In . SVG Version: 6.00 Build 0)  -->
<svg version="1.1" id="Слой_1" xmlns="http://www.w3.org/2000/svg" xmlns:xlink="http://www.w3.org/1999/xlink" x="0px" y="0px"
	 viewBox="0 0 367 72.8" style="enable-background:new 0 0 367 72.8;" xml:space="preserve">
<style type="text/css">
	.st0{opacity:0;}
	.st1{fill:#FFFFFF;}
	.st2{fill:#FF5F00;}
	.st3{fill:#EB001B;}
	.st4{fill:#F79E1B;}
	.st5{fill:#2566AF;}
	.st6{fill:#E6A540;}
	.st7{fill:none;}
</style>
<g class="st0">
	<rect x="243" y="-7" class="st1" width="131.4" height="86.9"/>
</g>
<rect x="291.4" y="8.1" class="st2" width="34.7" height="56.6"/>
<path class="st3" d="M294.9,36.5c0-11,5.1-21.5,13.8-28.3c-15.6-12.3-38.3-9.6-50.6,6c-12.3,15.6-9.6,38.3,6.1,50.5
	c13.1,10.3,31.4,10.3,44.5,0.1C300,57.9,294.9,47.5,294.9,36.5z"/>
<path class="st4" d="M366.9,36.5c0,19.9-16.1,36-36,36c-8.1,0-15.9-2.7-22.2-7.7c15.6-12.3,18.3-35,6.1-50.6
	c-1.8-2.3-3.8-4.3-6.1-6.1c15.6-12.2,38.3-9.5,50.5,6.1C364.2,20.5,366.9,28.4,366.9,36.5L366.9,36.5z"/>
<g>
	<path class="st5" d="M94.6,70.6H77L88,2.8h17.6L94.6,70.6z M62.1,2.8L45.3,49.4l-2-10l0,0L37.4,9c0,0-0.7-6.1-8.4-6.1H1.2L0.9,4.1
		c0,0,8.5,1.8,18.5,7.7l15.4,58.9h18.4l28-67.7L62.1,2.8L62.1,2.8z M200.8,70.6H217L202.9,2.8h-14.1c-6.5,0-8.1,5.1-8.1,5.1
		l-26.3,62.7h18.4l3.7-10.1h22.4L200.8,70.6L200.8,70.6z M181.4,46.6l9.3-25.4l5.3,25.4H181.4z M155.7,19.1l2.5-14.5
		c0,0-7.7-3-15.9-3c-8.8,0-29.5,3.8-29.5,22.4c0,17.5,24.4,17.7,24.4,26.9s-21.9,7.5-29.1,1.8l-2.6,15.2c0,0,7.8,3.8,19.9,3.8
		c12.1,0,30.2-6.2,30.2-23.2c0-17.6-24.6-19.3-24.6-26.9C130.9,14,148.1,14.9,155.7,19.1L155.7,19.1z"/>
</g>
<path class="st6" d="M43.4,39.3l-6-30.4c0,0-0.7-6.1-8.4-6.1H1.2L0.9,4c0,0,13.4,2.8,26.2,13.1C39.4,27.1,43.4,39.3,43.4,39.3z"/>
<path class="st7" d="M235-88h249v249H235V-88z"/>
</svg>
