<svg width="16" height="16" viewBox="0 0 16 16" fill="none" xmlns="http://www.w3.org/2000/svg"><path fill-rule="evenodd" clip-rule="evenodd" d="M2 9.864V3.045a.68.68 0 0 1 .505-.661L7.838 1.02a.652.652 0 0 1 .324 0l5.333 1.364a.68.68 0 0 1 .505.661v6.819c0 2.473-2.518 5.005-5.793 6.102a.652.652 0 0 1-.414 0C4.518 14.87 2 12.337 2 9.864z" fill="#97CF26"/><path d="M6.384 7.323a.5.5 0 0 0-.707 0l-.354.354a.5.5 0 0 0 0 .707l1.836 1.835a.5.5 0 0 0 .73-.024l3.346-3.825a.5.5 0 0 0-.047-.705l-.376-.33a.5.5 0 0 0-.706.047l-2.643 3.02-1.08-1.079z" fill="#fff"/></svg>
