<svg width="20" height="18" xmlns="http://www.w3.org/2000/svg">
  <path d="M17.6821 8.681L10 16.3644l-.7072-.7072-6.975-6.976C1.4696 7.8327 1 6.6994 1 5.5c0-1.2002.4694-2.3336 1.3179-3.1821S4.2998 1 5.5 1c1.2002 0 2.3336.4694 3.1732 1.3091l1.327 1.2942 1.3187-1.2854C12.1673 1.4695 13.3006 1 14.5 1c1.2002 0 2.3336.4694 3.1821 1.3179S19 4.2998 19 5.5c0 1.1994-.4695 2.3327-1.3179 3.1811zm-.0002-6.3629l-.0002-.0002c-1.7564-1.7572-4.6061-1.7572-6.3636.0002a4.5854 4.5854 0 0 0-.5016.5952l-.8188 1.158-.8157-1.1601a4.4388 4.4388 0 0 0-.5003-.5933C6.9253.5607 4.0756.5607 2.3181 2.3181c-1.7575 1.7575-1.7575 4.6063 0 6.3638l7.6811 7.681c.0005.0006.001.0006.0007.001l7.682-7.682c1.7575-1.7575 1.7575-4.6063 0-6.3638z" stroke="#0AF" stroke-width="2" fill="none" fill-rule="evenodd" stroke-opacity=".9"/>
</svg>
