<svg width="24" height="24" xmlns="http://www.w3.org/2000/svg">
  <path d="M6.526 17.605a2 2 0 0 1 2.297-.788c.159.053.328.1.507.142.793.184 1.523.231 2.67.231 4.5 0 8-2.833 8-6.095C20 7.833 16.5 5 12 5s-8 2.833-8 6.095c0 1.902.513 3.236 1.65 4.168a2 2 0 0 1 .692 1.154c.096.481.118.925.072 1.334.04-.044.077-.092.112-.146zm-1.455.85c.03.042.112.137.248.274l-.106.106a1.005 1.005 0 0 0-.142-.38zm-.017 1.621a4.98 4.98 0 0 1-.075.056l-.076.002a1.623 1.623 0 0 0 .31-1.3l-1.308 1.309v-1.708c.101-.082.2-.177.284-.293 1.508-.008 1.948-.085 2.225-.39-.108.969-.595 1.739-1.36 2.324zM4.38 16.81C2.598 15.348 2 13.312 2 11.095 2 6.625 6.477 3 12 3s10 3.624 10 8.095-4.477 8.095-10 8.095c-.808 0-2.381 0-3.81-.476-.952 1.429-2.38 1.429-4.285 1.429-1.905-1.905.952-.953.476-3.333z" fill-rule="nonzero" fill="#FFF"/>
</svg>
