<svg xmlns="http://www.w3.org/2000/svg" width="11" height="10">
  <path fill="#FFF" fill-rule="evenodd" d="M5.75 1.2c-.29.22-.51.52-.67.85l-.08.2a2.17 2.17 0 0 0-.09.41c0 .08 0 .14-.02.2v.12l.01.2.03.25h-.16a5.14 5.14 0 0 1-2.05-.47l-.36-.18c-.08-.03-.14-.07-.21-.12a4.95 4.95 0 0 1-1.1-.91 5.2 5.2 0 0 1-.57-.73 2.64 2.64 0 0 0-.2 1.84c.13.45.37.86.7 1.16l.15.16-.2-.05a6.66 6.66 0 0 1-.78-.27A2.47 2.47 0 0 0 1.9 6.1l-.55.03-.45-.01a2.45 2.45 0 0 0 2.04 1.55A5.01 5.01 0 0 1-.1 8.68c.83.53 1.8.87 2.84.93h.68a6.22 6.22 0 0 0 5.77-6.3V3c.12-.1.23-.2.35-.33.28-.26.53-.56.74-.88a2.08 2.08 0 0 1-1.18.35h-.03.02A2.34 2.34 0 0 0 9.96.98a5.4 5.4 0 0 1-1.02.39l-.05.02-.26.06a2.07 2.07 0 0 0-1.54-.7h-.04c-.16 0-.32.01-.48.04-.24.07-.48.17-.67.3l-.15.11z"/>
</svg>
