<svg width="14" height="14" xmlns="http://www.w3.org/2000/svg">
  <path d="M9.24 6.96a2.34 2.34 0 0 0-2.43-2.3h-.04c-1.49 0-2.31 1.17-2.31 2.5 0 1.48 1 2.41 2.3 2.41a2.42 2.42 0 0 0 2.49-2.32v-.3zM6.78 3.38c.99 0 1.92.44 2.6 1.12 0-.32.23-.57.54-.57H10c.48 0 .58.45.58.6v5.12c-.03.33.35.5.56.29.82-.85 1.81-4.34-.51-6.37A5.57 5.57 0 0 0 4 3.05a4.97 4.97 0 0 0-1.67 5.98c1.11 2.56 4.3 3.32 6.19 2.56.96-.38 1.4.9.4 1.33-1.5.64-5.68.57-7.64-2.8a6.17 6.17 0 0 1 2.26-8.37 6.85 6.85 0 0 1 8.34 1.07c2.22 2.32 2.1 6.66-.08 8.35-.98.76-2.44.02-2.43-1.1l-.01-.37a3.66 3.66 0 0 1-2.6 1.08A3.79 3.79 0 0 1 3.1 7.1a3.8 3.8 0 0 1 3.69-3.72z" fill="#EFA13E" fill-rule="evenodd"/>
</svg>
