<svg xmlns="http://www.w3.org/2000/svg" width="8" height="11">
  <path fill="#FFF" fill-rule="evenodd" d="M5.86 4.78v-.05c.43-.18.77-.47 1.02-.85.24-.39.37-.83.37-1.32 0-.42-.1-.8-.27-1.13a1.93 1.93 0 0 0-.81-.77C5.84.48 5.47.36 5.1.3A12.5 12.5 0 0 0 3.4.22L.01.2v9.81h4.13l1.81-.02c.48 0 .54-.2.92-.5a2.72 2.72 0 0 0 1.05-2.27c0-.68-.19-1.23-.57-1.63-.37-.41-.87-.68-1.5-.8zM2.37 2.07h1.2c.22.02.42.06.59.13.17.07.3.2.39.37.08.17.12.34.12.5 0 .22-.04.42-.11.58a.82.82 0 0 1-.42.4 1.46 1.46 0 0 1-.54.14l-.91.02h-.32V2.07zm2.78 5.76a1 1 0 0 1-.5.44c-.27.11-.52.17-.78.18l-1.36.01h-.14V5.93h.47l1.08.01c.27.01.48.04.63.1.26.1.45.23.57.4.13.18.2.42.2.73 0 .25-.06.47-.17.66z"/>
</svg>
