<svg width="32" height="32" xmlns="http://www.w3.org/2000/svg">
  <path d="M11 10V8.5C11 6.011 13.013 4 15.509 4h.982A4.507 4.507 0 0 1 21 8.5V10h2.201c1.475 0 2.816 1.182 2.996 2.656l1.273 10.38c.268 2.19-1.296 3.964-3.499 3.964H8.028c-2.2 0-3.765-1.787-3.498-3.964l1.272-10.38C5.982 11.19 7.322 10 8.798 10H11zm2 0h6V8.5C19 7.122 17.876 6 16.491 6h-.982A2.498 2.498 0 0 0 13 8.5V10zM6.515 23.28c-.121.99.52 1.72 1.511 1.72h15.948c.998 0 1.633-.722 1.511-1.72L24.217 12.9c-.058-.469-.543-.9-1.01-.9H8.792c-.464 0-.953.435-1.01.9L6.515 23.28zM12.5 17a1.5 1.5 0 1 1 0-3 1.5 1.5 0 0 1 0 3zm7 0a1.5 1.5 0 1 1 0-3 1.5 1.5 0 0 1 0 3z" fill="#b8b8b8" fill-rule="evenodd"/>
</svg>
