<svg width="24" height="24" xmlns="http://www.w3.org/2000/svg">
  <path d="M2 6.827c.003.741.168 1.46.48 2.247.468 1.19 1.144 2.309 2.068 3.509a38.698 38.698 0 0 0 6.374 6.49c1.237.999 2.402 1.747 3.639 2.288 1.089.476 2.031.698 3.03.629.802-.056 1.497-.334 2.047-.879a119.33 119.33 0 0 0 1.554-1.558 2.797 2.797 0 0 0-.285-4.184c-.435-.34-.786-.614-1.565-1.22l-.804-.628a2.84 2.84 0 0 0-3.452-.029c-.09.067-.156.12-.302.237-.124.1-.178.143-.243.192-.056.042-.098.04-.148-.006a7.365 7.365 0 0 1-.257-.254l-.126-.128-1.052-1.053c-1.412-1.414-2.04-2.043-2.822-2.83-.089-.088-.09-.1-.011-.203l.212-.27.117-.148c.882-1.124.888-2.478.013-3.609a511.753 511.753 0 0 0-1.78-2.287c-1.1-1.407-3.01-1.518-4.275-.254-.128.128-.23.23-.456.46-.45.456-.65.656-.9.896-.722.688-1.06 1.568-1.056 2.592zm2.436-1.145c.27-.259.48-.468.943-.937.224-.227.323-.327.447-.45.418-.418.927-.389 1.287.07.58.742 1.17 1.5 1.772 2.279.314.406.313.746-.005 1.15l-.111.142c-.114.143-.165.208-.229.291-.688.894-.62 2.032.178 2.834a2035.931 2035.931 0 0 0 3.876 3.885l.114.115c.154.157.226.229.324.32.763.708 1.89.762 2.719.132.083-.063.147-.113.284-.223.13-.105.188-.15.256-.202a.84.84 0 0 1 1.017.01 3587.318 3587.318 0 0 0 2.367 1.847c.398.31.435.852.085 1.212-.419.43-.765.776-1.53 1.534-.184.182-.426.28-.778.304-.627.043-1.27-.108-2.09-.466-1.056-.462-2.075-1.117-3.184-2.012a36.7 36.7 0 0 1-6.045-6.155c-.82-1.063-1.4-2.025-1.793-3.021-.227-.575-.338-1.058-.34-1.522-.002-.498.132-.848.436-1.137z" fill-rule="nonzero" fill="#FFF"/>
</svg>
