<svg width="16" height="16" xmlns="http://www.w3.org/2000/svg">
  <g fill="none" fill-rule="evenodd">
    <path d="M5.1.2l9.4 9.4.02-.02v.05l.05.03-.03.03 1.3 6.18-6.19-1.29-.06.06L.15 5.2a9.28 9.28 0 0 1 2.03-3.03A9.29 9.29 0 0 1 5.1.2z" fill="#123140"/>
    <path d="M7.03 2.13l-2-2a9.14 9.14 0 0 0-2.9 1.95A9.13 9.13 0 0 0 .1 5.15l1.98 1.98a9.28 9.28 0 0 1 2.03-3.02 9.29 9.29 0 0 1 2.92-1.98z" fill="#14A1DA"/>
    <path d="M12.2 15.11l-2.55-.53-.06.06-.02-.02a9.29 9.29 0 0 1 1.98-2.93 9.28 9.28 0 0 1 3-2h-.01l.53 2.53a5.17 5.17 0 0 0-1.71 1.14c-.5.5-.9 1.1-1.16 1.75z" fill="#FFF"/>
  </g>
</svg>
