<svg xmlns="http://www.w3.org/2000/svg" width="9" height="14">
  <path d="M7.4 6.95c-.46 0-1.38.92-3.23.92S1.39 6.95.93 6.95a.93.93 0 0 0-.93.92c0 .47.26.69.46.8.55.33 2.32 1.06 2.32 1.06L.8 12.24s-.35.43-.35.72c0 .51.42.93.93.93.47 0 .68-.3.68-.3l2.1-2.48 2.09 2.48s.21.3.68.3c.51 0 .93-.42.93-.93 0-.29-.35-.72-.35-.72L5.56 9.72S7.32 9 7.87 8.67c.2-.12.47-.34.47-.8a.93.93 0 0 0-.93-.92zM4.18 0a3.24 3.24 0 1 0 0 6.48 3.24 3.24 0 0 0 0-6.48zm0 4.86a1.62 1.62 0 1 1 0-3.24 1.62 1.62 0 0 1 0 3.24z" fill="#FFF" fill-rule="evenodd"/>
</svg>
