<svg width="24" height="24" xmlns="http://www.w3.org/2000/svg">
  <path d="M12 2c5.523 0 10 4.477 10 10s-4.477 10-10 10S2 17.523 2 12 6.477 2 12 2zm0 2a8 8 0 1 0 0 16 8 8 0 0 0 0-16zm1.5 3C14.708 7 16 8.053 16 9.536v.995c0 1.45-1.303 2.488-2.5 2.488H11v1.014h2.997a.997.997 0 0 1 1.003.996.992.992 0 0 1-1.003.995H11c0 .323-.005 1.014-1 .995-.995 0-1-.673-1-.995a.997.997 0 1 1 0-1.991v-1.014h-.5v-2H9v-4s4.104-.02 4.5-.02zm.5 3.53v-.994c0-.286-.318-.545-.5-.545-.23 0-2.5.028-2.5.028v2c1.175 0 2.353-.005 2.5-.02.178.03.5-.226.5-.468z" fill-rule="nonzero" fill="#FFF"/>
</svg>
